<svg width="107" height="48" viewBox="0 0 107 48" fill="none" xmlns="http://www.w3.org/2000/svg">
<path d="M39.3109 0V48H31.6029L9.06277 15.3047H8.66569V48H0V0H7.75474L30.2715 32.7188H30.692V0H39.3109Z" fill="#161616"/>
<path d="M36.9861 48L23.4854 0H32.8051L41.4241 35.2734H41.8679L51.0708 0H59.5496L68.7759 35.2969H69.1963L77.8153 0H87.135L73.6343 48H65.0854L55.5088 14.3203H55.135L45.535 48H36.9861Z" fill="black"/>
<path d="M71.3095 48V0H89.6219C93.0788 0 95.9518 0.546875 98.2409 1.64062C100.546 2.71875 102.266 4.19531 103.403 6.07031C104.555 7.94531 105.131 10.0703 105.131 12.4453C105.131 14.3984 104.758 16.0703 104.01 17.4609C103.263 18.8359 102.258 19.9531 100.997 20.8125C99.7358 21.6719 98.3265 22.2891 96.7693 22.6641V23.1328C98.4667 23.2266 100.094 23.75 101.651 24.7031C103.224 25.6406 104.509 26.9687 105.505 28.6875C106.502 30.4062 107 32.4844 107 34.9219C107 37.4063 106.4 39.6406 105.201 41.625C104.002 43.5938 102.196 45.1484 99.7825 46.2891C97.3689 47.4297 94.3324 48 90.673 48H71.3095ZM79.9752 40.7344H89.2949C92.4404 40.7344 94.7061 40.1328 96.092 38.9297C97.4934 37.7109 98.1942 36.1484 98.1942 34.2422C98.1942 32.8203 97.8438 31.5391 97.1431 30.3984C96.4423 29.2422 95.4457 28.3359 94.1533 27.6797C92.8608 27.0078 91.3192 26.6719 89.5285 26.6719H79.9752V40.7344ZM79.9752 20.4141H88.5475C90.0423 20.4141 91.3893 20.1406 92.5883 19.5938C93.7874 19.0312 94.7295 18.2422 95.4146 17.2266C96.1153 16.1953 96.4657 14.9766 96.4657 13.5703C96.4657 11.7109 95.8117 10.1797 94.5037 8.97656C93.2112 7.77344 91.2881 7.17187 88.7343 7.17187H79.9752V20.4141Z" fill="#161616"/>
</svg>
